<svg width="425" height="76" viewBox="0 0 425 76" fill="none" xmlns="http://www.w3.org/2000/svg">
<g clip-path="url(#clip0_528_3121)">
<path d="M0.412598 49.2072L0.516394 0.868912L28.9222 0.919652L37.226 30.3827L46.3083 0.953479L74.3335 1.00422L74.2297 49.3425L56.4804 49.3087L56.5496 11.5581L44.7167 49.2917L29.7699 49.2579L18.2138 11.4905L18.1273 49.241L0.412598 49.2072Z" fill="#A82327"/>
<path d="M77.6377 49.3594L99.1583 1.05498L123.464 1.10572L143.359 49.4778L122.599 49.444L120.973 44.7083L99.9368 44.6744L98.1549 49.4102L77.6204 49.3763L77.6377 49.3594ZM104.487 32.7336L116.752 32.7675L110.835 15.7527L104.487 32.7336Z" fill="#A82327"/>
<path d="M157.735 49.5116L157.769 35.8456L136.145 1.1226L158.669 1.17334L167.526 21.0972L177.024 1.20717L199.063 1.241L176.954 35.8795L176.937 49.5454L157.735 49.5116Z" fill="#A82327"/>
<path d="M192.195 24.2622L192.169 37.37L217.011 37.4167L217.037 24.3089L192.195 24.2622Z" fill="#A82327"/>
<path d="M226.569 49.647L226.673 1.30869L263.642 1.37634C270.631 1.37634 276.046 2.76323 279.835 5.50319C283.623 8.24315 285.526 12.1163 285.509 17.1057C285.509 22.0782 283.589 25.9176 279.783 28.6575C275.977 31.3975 270.579 32.7336 263.573 32.7336L245.755 32.6998L245.72 49.6977L226.569 49.6639V49.647ZM256.307 11.7611H245.806L245.789 22.1628H256.29C259.404 22.1966 261.566 21.8076 262.76 21.0296C263.954 20.2516 264.559 18.9155 264.559 17.0042C264.559 15.0592 263.971 13.7061 262.777 12.9281C261.584 12.1501 259.438 11.7611 256.307 11.7611Z" fill="#A82327"/>
<path d="M329.709 1.49474C334.017 1.49474 337.46 1.71461 340.037 2.12053C342.615 2.52645 344.639 3.15225 346.092 4.01482C347.943 5.08036 349.344 6.518 350.313 8.32772C351.282 10.1205 351.766 12.2009 351.749 14.5518C351.749 17.4102 351.005 19.9133 349.569 22.0783C348.116 24.2432 346.109 25.7992 343.584 26.7632C345.763 27.6596 347.303 28.7759 348.168 30.0952C349.05 31.4144 349.552 33.7484 349.708 37.0804C349.725 37.4525 349.742 37.9599 349.777 38.6195C350.071 44.9451 350.936 48.4461 352.372 49.1565V49.9007L331.076 49.8668C330.436 48.8351 330.073 46.8563 330.021 43.9133C329.986 42.1882 329.9 40.8689 329.796 39.9218C329.606 38.1628 329 36.9112 327.979 36.184C326.959 35.4567 325.263 35.1015 322.876 35.1015H311.441L311.406 49.8161L291.979 49.7823L292.083 1.444L329.727 1.51165L329.709 1.49474ZM311.441 22.3489H322.599C325.523 22.3827 327.581 22.0444 328.775 21.3679C329.969 20.6914 330.574 19.5582 330.574 17.9683C330.574 16.3954 330.021 15.296 328.896 14.6871C327.772 14.0613 325.523 13.74 322.167 13.74H311.476V22.3489H311.441Z" fill="#A82327"/>
<path d="M359.517 37.7231C357.838 34.3404 356.991 30.3489 357.008 25.7484C357.008 17.3425 359.828 11 365.433 6.72095C371.038 2.45879 379.324 0.327715 390.31 0.344628C401.295 0.361541 409.581 2.52645 415.169 6.82243C420.757 11.1184 423.542 17.4609 423.525 25.8837C423.508 34.2727 420.705 40.5983 415.1 44.8774C409.495 49.1565 401.208 51.2706 390.223 51.2537C379.238 51.2368 370.951 49.0719 365.364 44.7759C362.855 42.8478 360.9 40.4969 359.517 37.74M377.595 25.7992C377.595 30.0106 378.667 33.2241 380.83 35.4567C382.992 37.6892 386.123 38.8055 390.223 38.8055C394.323 38.8055 397.454 37.7062 399.634 35.4905C401.814 33.2749 402.904 30.0613 402.921 25.8499C402.921 21.6216 401.848 18.3911 399.686 16.1417C397.524 13.8922 394.375 12.759 390.275 12.759C386.175 12.759 383.044 13.8584 380.864 16.1078C378.684 18.3573 377.595 21.5878 377.577 25.7992" fill="#A82327"/>
<path d="M1.06979 59.5919H6.13856C9.20057 59.5919 10.498 60.8266 10.4807 63.9556C10.4807 66.9831 9.02758 68.4376 6.06936 68.4207H3.94151V74.9154H1.05249L1.08709 59.5919H1.06979ZM5.10058 66.3065C6.86514 66.3065 7.55712 65.7484 7.55712 64.0063C7.55712 62.1797 6.88244 61.7399 5.15248 61.7399H3.88961V66.2896H5.11788L5.10058 66.3065Z" fill="#433F40"/>
<path d="M13.8887 59.6089H17.7984L21.3275 74.9323H18.1789L17.4178 71.0761H14.0617L13.3005 74.9154H10.325L13.8714 59.6089H13.8887ZM17.0199 68.7759L15.7916 62.3657L14.546 68.7759H17.0199Z" fill="#433F40"/>
<path d="M22.9192 59.6258H28.1436C31.2921 59.6258 32.5896 60.8097 32.5896 63.6511C32.5896 65.6469 31.8111 66.8139 30.3753 67C32.5204 67.5581 32.4685 68.6575 32.5377 70.6194L32.6242 72.6659C32.6588 73.6638 32.8318 74.3742 33.4027 74.9492H29.9428C29.7352 74.2896 29.7006 73.5116 29.6833 72.5645L29.6487 70.9577V70.5518C29.6487 68.556 28.801 68.2346 26.7251 68.2177H25.7217V74.9323H22.9019L22.9365 59.6089L22.9192 59.6258ZM27.3997 66.1036C29.0951 66.1036 29.6487 65.5285 29.6487 63.8203C29.6487 62.1966 28.9221 61.7568 27.1575 61.7568H25.7217V66.0867H27.417L27.3997 66.1036Z" fill="#433F40"/>
<path d="M37.3122 59.6596H41.2219L44.751 74.9831H41.6025L40.8413 71.1268H37.4852L36.7241 74.9662H33.7485L37.2949 59.6596H37.3122ZM40.4435 68.8266L39.2152 62.4165L37.9696 68.8266H40.4435Z" fill="#433F40"/>
<path d="M51.5498 59.6934H54.4734L54.4561 72.4122H59.7325V75.0338H51.5498L51.5844 59.7103L51.5498 59.6934Z" fill="#433F40"/>
<path d="M61.6182 61.2833C62.587 59.8456 63.7633 59.3552 65.7528 59.3552C67.7249 59.3552 68.9186 59.8456 69.8701 61.3002C70.5793 62.3826 70.8215 64.3784 70.8215 67.389C70.8215 70.3826 70.5621 72.3953 69.8528 73.4778C68.884 74.9154 67.7076 75.4059 65.7182 75.4059C63.746 75.4059 62.5524 74.9154 61.6009 73.4609C60.8916 72.3953 60.6494 70.3826 60.6494 67.3721C60.6494 64.3615 60.9089 62.3488 61.6182 61.2833ZM65.7355 73.1226C67.7422 73.1226 67.8287 71.3805 67.8287 67.389C67.8287 63.3974 67.7595 61.6215 65.7355 61.6215C63.7114 61.6215 63.6249 63.3805 63.6249 67.389C63.6249 71.3805 63.7114 73.1226 65.7355 73.1395V73.1226Z" fill="#433F40"/>
<path d="M75.8211 69.6723V70.6533C75.8211 72.3108 76.0805 73.0888 77.4126 73.1057C78.6582 73.1057 79.3156 72.4799 79.3156 71.296C79.3156 70.1966 78.7447 69.6892 77.5337 68.8435L76.0286 67.7949C74.0392 66.4249 73.0531 65.63 73.0531 63.4651C73.0531 60.8943 74.7312 59.3552 77.4645 59.3552C80.3535 59.3552 81.9624 60.945 81.9624 63.871C81.9624 64.0571 81.9624 64.2431 81.9451 64.4292H79.1772V64.0232C79.1772 62.3996 78.6755 61.7061 77.3953 61.6892C76.4611 61.6892 75.8902 62.2642 75.8902 63.2114C75.8902 64.1924 76.5995 64.6321 77.724 65.3763L79.3329 66.4418C81.3915 67.7949 82.2565 68.8266 82.2565 71.0761C82.2565 73.8499 80.5784 75.4228 77.5337 75.4228C74.3852 75.4228 72.8801 73.8499 72.8801 70.5856C72.8801 70.2981 72.8974 69.9936 72.9147 69.6723H75.8383H75.8211Z" fill="#433F40"/>
<path d="M89.8337 59.7611H94.9025C97.9645 59.7611 99.262 60.9958 99.2447 64.1247C99.2447 67.1522 97.7915 68.6067 94.8333 68.5898H92.7054V75.0845H89.8164L89.851 59.7611H89.8337ZM93.8645 66.4757C95.6291 66.4757 96.321 65.9175 96.321 64.1755C96.321 62.3488 95.6463 61.9091 93.9164 61.9091H92.6535V66.4588H93.8818L93.8645 66.4757Z" fill="#433F40"/>
<path d="M101.199 59.778H106.424C109.572 59.778 110.87 60.9619 110.87 63.8034C110.87 65.7991 110.091 66.9662 108.656 67.1522C110.801 67.7103 110.749 68.8097 110.818 70.7716L110.904 72.8012C110.939 73.7991 111.112 74.5095 111.683 75.0845H108.223C108.015 74.4249 107.981 73.6469 107.964 72.6998L107.929 71.093V70.6871C107.929 68.6913 107.081 68.37 105.005 68.353H104.002V75.0676H101.182L101.217 59.7442L101.199 59.778ZM105.68 66.2558C107.375 66.2558 107.929 65.6977 107.929 63.9725C107.929 62.3488 107.202 61.9091 105.438 61.9091H104.002V66.2389H105.697L105.68 66.2558Z" fill="#433F40"/>
<path d="M113.863 61.3678C114.832 59.9302 116.008 59.4397 117.997 59.4397C119.97 59.4397 121.163 59.9302 122.115 61.3848C122.824 62.4672 123.066 64.463 123.066 67.4736C123.066 70.4672 122.807 72.4799 122.097 73.5623C121.129 75 119.952 75.4905 117.963 75.4905C115.991 75.4905 114.797 75 113.846 73.5454C113.136 72.4799 112.894 70.4672 112.894 67.4566C112.894 64.4461 113.154 62.4334 113.863 61.3678ZM117.98 73.2072C119.987 73.2072 120.073 71.4651 120.073 67.4736C120.073 63.482 120.004 61.7061 117.98 61.7061C115.956 61.7061 115.87 63.4651 115.87 67.4566C115.87 71.4482 115.956 73.1903 117.98 73.2072Z" fill="#433F40"/>
<path d="M125.454 59.8287H133.636V62.3488H128.36V65.9683H133.342V68.4207H128.36V75.1522H125.436L125.471 59.8287H125.454Z" fill="#433F40"/>
<path d="M135.643 59.8456H143.687V62.3996H138.549V65.9344H143.341V68.37H138.549V72.5814H143.826V75.186H135.66L135.695 59.8626L135.643 59.8456Z" fill="#433F40"/>
<path d="M148.548 69.8076V70.7886C148.548 72.4461 148.808 73.2241 150.14 73.241C151.385 73.241 152.043 72.6152 152.043 71.4313C152.043 70.3319 151.472 69.8245 150.261 68.9788L148.756 67.9302C146.766 66.5602 145.78 65.7653 145.78 63.6173C145.78 61.0465 147.458 59.5074 150.192 59.5074C153.081 59.5074 154.69 61.0972 154.69 64.0232C154.69 64.2093 154.69 64.3953 154.672 64.5814H151.904V64.1755C151.904 62.5518 151.403 61.8583 150.123 61.8583C149.188 61.8583 148.618 62.4165 148.618 63.3805C148.618 64.3615 149.327 64.8012 150.451 65.5454L152.06 66.611C154.119 67.964 154.984 68.9957 154.984 71.2452C154.984 74.019 153.306 75.6089 150.261 75.5919C147.112 75.5919 145.607 74.019 145.607 70.7547C145.607 70.4672 145.625 70.1628 145.642 69.8414H148.566L148.548 69.8076Z" fill="#433F40"/>
<path d="M157.371 59.8964H160.295L160.26 75.2199H157.336L157.371 59.8964Z" fill="#433F40"/>
<path d="M163.599 61.4693C164.568 60.0317 165.744 59.5412 167.734 59.5412C169.706 59.5412 170.899 60.0317 171.851 61.4862C172.56 62.5687 172.802 64.5645 172.802 67.575C172.802 70.5687 172.543 72.5814 171.833 73.6638C170.865 75.1015 169.688 75.5919 167.699 75.5919C165.727 75.5919 164.533 75.1015 163.582 73.6469C162.872 72.5814 162.63 70.5687 162.63 67.5581C162.63 64.5475 162.89 62.5349 163.599 61.4693ZM167.716 73.3086C169.723 73.3086 169.809 71.5666 169.809 67.575C169.809 63.5835 169.74 61.8076 167.716 61.8076C165.692 61.8076 165.606 63.5666 165.606 67.575C165.606 71.5666 165.692 73.3086 167.716 73.3256V73.3086Z" fill="#433F40"/>
<path d="M175.19 59.9302H178.182L182.248 70.6533L182.179 59.9471H184.929L184.895 75.2706H181.919L177.836 64.5306L177.906 75.2537H175.155L175.19 59.9302Z" fill="#433F40"/>
<path d="M189.981 59.9471H193.89L197.42 75.2706H194.271L193.51 71.4144H190.154L189.393 75.2537H186.417L189.963 59.9471H189.981ZM193.112 69.1141L191.884 62.704L190.638 69.1141H193.112Z" fill="#433F40"/>
<path d="M198.994 59.964H201.918L201.9 72.6829H207.177V75.3044H198.994L199.028 59.981L198.994 59.964Z" fill="#433F40"/>
<path d="M209.166 59.9809H217.21V62.5349H212.072V66.0697H216.864V68.5053H212.072V72.7167H217.349V75.3213H209.183L209.218 59.9979L209.166 59.9809Z" fill="#433F40"/>
<path d="M222.089 69.9429V70.9239C222.089 72.5814 222.348 73.3763 223.68 73.3763C224.926 73.3763 225.583 72.7505 225.583 71.5666C225.583 70.4672 225.012 69.9598 223.802 69.1141L222.296 68.0655C220.307 66.6955 219.321 65.9006 219.321 63.7357C219.321 61.1649 220.999 59.6258 223.732 59.6258C226.621 59.6258 228.23 61.2156 228.23 64.1416C228.23 64.3277 228.23 64.5137 228.213 64.6998H225.445V64.2938C225.445 62.6702 224.943 61.9767 223.663 61.9767C222.729 61.9767 222.158 62.5349 222.158 63.4989C222.158 64.4799 222.867 64.9196 223.992 65.6638L225.601 66.7294C227.659 68.0824 228.524 69.1141 228.524 71.3636C228.524 74.1374 226.846 75.7103 223.802 75.7103C220.653 75.7103 219.148 74.1374 219.148 70.8731C219.148 70.5856 219.165 70.2812 219.183 69.9598H222.106L222.089 69.9429Z" fill="#433F40"/>
<path d="M236.101 60.0486H240.789C242.502 60.0486 243.661 60.2854 244.474 61.0803C245.806 62.3657 245.962 64.1585 245.962 66.7801C245.962 69.7399 245.927 71.9725 244.924 73.6807C244.042 75.2029 242.606 75.3721 240.097 75.3552H236.084L236.119 60.0317L236.101 60.0486ZM240.219 73.1057C241.222 73.1057 241.845 73.0719 242.243 72.4968C242.917 71.5158 243.004 69.9091 243.004 67.5243C243.004 65.1057 242.883 63.5666 242.122 62.7547C241.724 62.3488 241.135 62.2812 240.201 62.2812H238.956L238.938 73.0888H240.236L240.219 73.1057Z" fill="#433F40"/>
<path d="M248.367 60.0655H256.411V62.6194H251.273V66.1543H256.065V68.5898H251.273V72.8012H256.549V75.4059H248.384L248.419 60.0824L248.367 60.0655Z" fill="#433F40"/>
<path d="M263.885 60.0993H266.808L266.791 72.8182H272.067V75.4397H263.885L263.919 60.1163L263.885 60.0993Z" fill="#433F40"/>
<path d="M276.427 60.1163H280.336L283.866 75.4397H280.717L279.956 71.5835H276.6L275.839 75.4228H272.863L276.409 60.1163H276.427ZM279.558 69.2833L278.33 62.8731L277.084 69.2833H279.558Z" fill="#433F40"/>
<path d="M299.695 70.0105C299.695 70.2135 299.712 70.3996 299.712 70.6025C299.712 74.1374 298.207 75.8287 295.058 75.8287C293.605 75.8287 292.533 75.4736 291.754 74.6617C290.422 73.3256 290.318 71.1099 290.336 67.6089C290.336 64.6829 290.56 62.7378 291.131 61.7738C291.996 60.353 293.19 59.778 295.093 59.778C298.276 59.778 299.625 61.334 299.643 64.9027H296.806V64.5306C296.806 62.8731 296.269 62.0613 295.145 62.0613C293.328 62.0613 293.328 63.6681 293.328 67.575C293.328 71.8541 293.328 73.4947 295.11 73.4947C296.512 73.4947 296.857 72.5475 296.875 70.1966V69.9936H299.712L299.695 70.0105Z" fill="#433F40"/>
<path d="M302.722 61.7399C303.691 60.3023 304.867 59.8118 306.857 59.8118C308.829 59.8118 310.022 60.3023 310.974 61.7568C311.683 62.8393 311.925 64.8351 311.925 67.8456C311.925 70.8393 311.666 72.852 310.957 73.9344C309.988 75.3721 308.811 75.8626 306.822 75.8626C304.85 75.8626 303.656 75.3721 302.705 73.9175C301.995 72.852 301.753 70.8393 301.753 67.8287C301.753 64.8182 302.013 62.8055 302.722 61.7399ZM306.839 73.5793C308.846 73.5793 308.932 71.8372 308.932 67.8456C308.932 63.8541 308.863 62.0782 306.839 62.0782C304.815 62.0782 304.729 63.8372 304.729 67.8287C304.729 71.8203 304.815 73.5623 306.839 73.5793Z" fill="#433F40"/>
<path d="M314.295 60.1839H317.288L321.354 70.907L321.284 60.2008H324.035L324 75.5243H321.025L316.942 64.7843L317.011 75.5074H314.261L314.295 60.1839Z" fill="#433F40"/>
<path d="M329.329 70.1628V71.1437C329.329 72.8012 329.588 73.5793 330.92 73.5962C332.166 73.5962 332.823 72.9704 332.823 71.7864C332.823 70.6871 332.252 70.1797 331.041 69.334L329.536 68.2854C327.547 66.9154 326.561 66.1205 326.561 63.9725C326.561 61.4017 328.239 59.8626 330.972 59.8626C333.861 59.8626 335.47 61.4524 335.47 64.3784C335.47 64.5645 335.47 64.7505 335.453 64.9366H332.685V64.5306C332.685 62.907 332.183 62.2135 330.903 62.2135C329.969 62.2135 329.398 62.7716 329.398 63.7357C329.398 64.7167 330.107 65.1564 331.232 65.9006L332.84 66.9662C334.899 68.3192 335.764 69.3509 335.764 71.6004C335.764 74.3742 334.086 75.9471 331.041 75.9471C327.893 75.9471 326.388 74.3742 326.388 71.1099C326.388 70.8224 326.405 70.5179 326.422 70.1966H329.346L329.329 70.1628Z" fill="#433F40"/>
<path d="M340.366 62.7716H337.01V60.2346H346.628V62.7716H343.272L343.237 75.5581H340.314L340.348 62.7716H340.366Z" fill="#433F40"/>
<path d="M348.185 60.2516H353.41C356.558 60.2516 357.856 61.4355 357.856 64.2769C357.856 66.2727 357.077 67.4397 355.641 67.6258C357.787 68.1839 357.735 69.2833 357.804 71.2621L357.89 73.2917C357.925 74.2896 358.098 75 358.669 75.575H355.209C355.001 74.9154 354.967 74.1374 354.949 73.1903L354.915 71.5835V71.1776C354.915 69.1818 354.067 68.8604 351.991 68.8435H350.988V75.5581H348.168L348.203 60.2346L348.185 60.2516ZM352.666 66.7294C354.361 66.7294 354.915 66.1543 354.915 64.4461C354.915 62.8224 354.188 62.3826 352.424 62.3826H350.988V66.7124H352.683L352.666 66.7294Z" fill="#433F40"/>
<path d="M363.115 60.2854V70.6025C363.097 72.7167 363.443 73.63 365.104 73.63C366.748 73.63 367.076 72.6998 367.094 70.5687V60.2854H369.983V70.8562C369.965 72.3277 369.913 73.427 369.187 74.3573C368.356 75.4059 366.973 75.964 365.052 75.964C361.333 75.964 360.156 74.4757 360.174 70.8393V60.2685H363.115V60.2854Z" fill="#433F40"/>
<path d="M381.677 70.1797C381.677 70.3826 381.694 70.5687 381.694 70.7716C381.694 74.3065 380.189 75.9979 377.041 75.9979C375.588 75.9979 374.515 75.6427 373.737 74.8308C372.404 73.4947 372.301 71.279 372.318 67.778C372.318 64.852 372.543 62.907 373.114 61.9429C373.979 60.5222 375.172 59.9471 377.075 59.9471C380.258 59.9471 381.608 61.5032 381.625 65.0719H378.788V64.6998C378.788 63.0423 378.252 62.2304 377.127 62.2304C375.311 62.2304 375.311 63.8372 375.311 67.7442C375.311 72.0232 375.311 73.6638 377.093 73.6638C378.494 73.6638 378.84 72.7167 378.857 70.3657V70.1628H381.694L381.677 70.1797Z" fill="#433F40"/>
<path d="M393.095 70.1966C393.095 70.3996 393.112 70.5856 393.112 70.7886C393.112 74.3234 391.607 76.0148 388.458 76.0148C387.005 76.0148 385.933 75.6596 385.154 74.8478C383.822 73.5116 383.718 71.296 383.736 67.7949C383.736 64.8689 383.961 62.9239 384.531 61.9598C385.396 60.5391 386.59 59.964 388.493 59.964C391.676 59.964 393.026 61.5201 393.043 65.0888H390.206V64.7167C390.206 63.0592 389.669 62.2473 388.545 62.2473C386.729 62.2473 386.729 63.8541 386.729 67.7611C386.729 72.0401 386.729 73.6807 388.51 73.6807C389.912 73.6807 390.258 72.7336 390.275 70.3826V70.1797H393.112L393.095 70.1966Z" fill="#433F40"/>
<path d="M395.482 60.353H398.406L398.371 75.6765H395.448L395.482 60.353Z" fill="#433F40"/>
<path d="M401.71 61.926C402.679 60.4884 403.855 59.9979 405.845 59.9979C407.817 59.9979 409.01 60.4884 409.962 61.9429C410.671 63.0254 410.913 65.0211 410.913 68.0317C410.913 71.0254 410.654 73.038 409.945 74.1205C408.976 75.5581 407.799 76.0486 405.81 76.0486C403.838 76.0486 402.644 75.5581 401.693 74.1036C400.983 73.038 400.741 71.0254 400.741 68.0148C400.741 65.0042 401.001 62.9915 401.71 61.926ZM405.827 73.7653C407.834 73.7653 407.921 72.0232 407.921 68.0317C407.921 64.0402 407.851 62.2643 405.827 62.2643C403.803 62.2643 403.717 64.0232 403.717 68.0317C403.717 72.0232 403.803 73.7653 405.827 73.7822V73.7653ZM406.191 56.26H408.785L405.672 59.0846H404.409L406.191 56.26Z" fill="#433F40"/>
<path d="M413.301 60.3869H416.294L420.359 71.1099L420.29 60.4038H423.04L423.006 75.7273H420.03L415.948 64.9873L416.017 75.7103H413.266L413.301 60.3869Z" fill="#433F40"/>
<path d="M419.996 47.3129C420.722 47.3129 421.432 47.4989 422.089 47.8541C422.764 48.2093 423.283 48.7167 423.663 49.3932C424.044 50.0528 424.234 50.7463 424.234 51.4735C424.234 52.2008 424.044 52.8773 423.663 53.537C423.283 54.1966 422.764 54.704 422.089 55.0592C421.414 55.4143 420.705 55.6004 419.978 55.6004C419.252 55.6004 418.543 55.4143 417.868 55.0423C417.193 54.6702 416.674 54.1628 416.294 53.5031C415.913 52.8435 415.74 52.1501 415.74 51.4397C415.74 50.7124 415.93 50.019 416.311 49.3594C416.691 48.6998 417.228 48.1924 417.885 47.8372C418.56 47.482 419.252 47.3129 419.978 47.3129M419.978 48.1247C419.39 48.1247 418.837 48.26 418.3 48.5475C417.764 48.8351 417.332 49.241 417.037 49.7822C416.726 50.3234 416.57 50.8816 416.57 51.4566C416.57 52.0317 416.726 52.5898 417.02 53.1141C417.314 53.6384 417.747 54.0613 418.283 54.3488C418.819 54.6532 419.39 54.7885 419.978 54.8055C420.567 54.8055 421.137 54.6532 421.674 54.3657C422.21 54.0782 422.625 53.6554 422.937 53.131C423.248 52.6067 423.386 52.0486 423.386 51.4735C423.386 50.8816 423.231 50.3234 422.919 49.7991C422.608 49.2579 422.193 48.852 421.656 48.5644C421.12 48.2769 420.549 48.1247 419.978 48.1247ZM418.041 53.6892V49.2917H418.958C419.823 49.2917 420.29 49.2917 420.394 49.2917C420.705 49.3086 420.93 49.3763 421.103 49.4609C421.276 49.5623 421.414 49.6976 421.518 49.8837C421.622 50.0697 421.691 50.2896 421.691 50.5095C421.691 50.8308 421.587 51.1014 421.38 51.3213C421.172 51.5412 420.878 51.6934 420.48 51.7442C420.618 51.7949 420.722 51.8456 420.791 51.9133C420.861 51.9809 420.964 52.0824 421.103 52.2516C421.137 52.2854 421.241 52.4714 421.432 52.7928L421.968 53.6892H420.843L420.463 52.9788C420.203 52.4883 419.996 52.2008 419.84 52.0655C419.667 51.9471 419.459 51.8795 419.217 51.8795H418.975V53.6892H418.058H418.041ZM418.958 51.186H419.321C419.857 51.186 420.169 51.1691 420.307 51.1353C420.428 51.1014 420.532 51.0169 420.601 50.9323C420.67 50.8308 420.722 50.7294 420.722 50.594C420.722 50.4587 420.688 50.3573 420.618 50.2727C420.549 50.1712 420.445 50.1036 420.307 50.0697C420.169 50.019 419.84 50.0021 419.321 50.0021H418.958V51.2029V51.186Z" fill="#A82327"/>
</g>
<defs>
<clipPath id="clip0_528_3121">
<rect width="424.587" height="76" fill="white"/>
</clipPath>
</defs>
</svg>
