<svg width="224" height="213" viewBox="0 0 224 213" fill="none" xmlns="http://www.w3.org/2000/svg">
<path opacity="0.2" d="M83.8914 15H224L143.257 213H0L83.8914 15Z" fill="#D82227"/>
<path d="M75.9389 0H186L136.534 121H24L75.9389 0Z" fill="#D82227"/>
<rect x="71.2627" y="46.2305" width="21.306" height="2.64801" fill="white"/>
<mask id="path-4-inside-1_682_3124" fill="white">
<path d="M70.5146 41.0557C70.5146 40.7795 70.7385 40.5557 71.0146 40.5557H92.8038C93.0799 40.5557 93.3038 40.7795 93.3038 41.0557V49.1596C93.3038 49.4357 93.0799 49.6596 92.8038 49.6596H71.0146C70.7385 49.6596 70.5146 49.4357 70.5146 49.1596V41.0557Z"/>
</mask>
<path d="M70.5146 41.0557C70.5146 40.7795 70.7385 40.5557 71.0146 40.5557H92.8038C93.0799 40.5557 93.3038 40.7795 93.3038 41.0557V49.1596C93.3038 49.4357 93.0799 49.6596 92.8038 49.6596H71.0146C70.7385 49.6596 70.5146 49.4357 70.5146 49.1596V41.0557Z" stroke="white" stroke-width="2" mask="url(#path-4-inside-1_682_3124)"/>
<rect x="71.2627" y="55.1504" width="10.4661" height="2.64801" fill="white"/>
<rect x="82.7612" y="55.1504" width="19.8108" height="2.64801" fill="white"/>
<rect x="71.2627" y="62.4346" width="42.9858" height="2.64801" fill="white"/>
<rect x="71.2627" y="70.5371" width="52.7043" height="2.64801" fill="white"/>
<rect x="71.2627" y="78.3232" width="52.7043" height="2.64801" fill="white"/>
<mask id="path-10-inside-2_682_3124" fill="white">
<path d="M70.5146 49.1943C70.5146 48.9182 70.7385 48.6943 71.0146 48.6943H82.0089C82.2851 48.6943 82.5089 48.9182 82.5089 49.1943V57.2983C82.5089 57.5744 82.2851 57.7983 82.0089 57.7983H71.0146C70.7385 57.7983 70.5146 57.5744 70.5146 57.2983V49.1943Z"/>
</mask>
<path d="M70.5146 49.1943C70.5146 48.9182 70.7385 48.6943 71.0146 48.6943H82.0089C82.2851 48.6943 82.5089 48.9182 82.5089 49.1943V57.2983C82.5089 57.5744 82.2851 57.7983 82.0089 57.7983H71.0146C70.7385 57.7983 70.5146 57.5744 70.5146 57.2983V49.1943Z" stroke="white" stroke-width="2" mask="url(#path-10-inside-2_682_3124)"/>
<mask id="path-11-inside-3_682_3124" fill="white">
<path d="M70.5146 65.4385C70.5146 65.1623 70.7385 64.9385 71.0146 64.9385H82.0089C82.2851 64.9385 82.5089 65.1623 82.5089 65.4385V73.5424C82.5089 73.8186 82.2851 74.0424 82.0089 74.0424H71.0146C70.7385 74.0424 70.5146 73.8186 70.5146 73.5424V65.4385Z"/>
</mask>
<path d="M70.5146 65.4385C70.5146 65.1623 70.7385 64.9385 71.0146 64.9385H82.0089C82.2851 64.9385 82.5089 65.1623 82.5089 65.4385V73.5424C82.5089 73.8186 82.2851 74.0424 82.0089 74.0424H71.0146C70.7385 74.0424 70.5146 73.8186 70.5146 73.5424V65.4385Z" stroke="white" stroke-width="2" mask="url(#path-11-inside-3_682_3124)"/>
<mask id="path-12-inside-4_682_3124" fill="white">
<path d="M113.764 73.248C113.764 72.9719 113.988 72.748 114.264 72.748H124.034C124.31 72.748 124.534 72.9719 124.534 73.248V81.352C124.534 81.6281 124.31 81.852 124.034 81.852H114.264C113.988 81.852 113.764 81.6281 113.764 81.352V73.248Z"/>
</mask>
<path d="M113.764 73.248C113.764 72.9719 113.988 72.748 114.264 72.748H124.034C124.31 72.748 124.534 72.9719 124.534 73.248V81.352C124.534 81.6281 124.31 81.852 124.034 81.852H114.264C113.988 81.852 113.764 81.6281 113.764 81.352V73.248Z" stroke="white" stroke-width="2" mask="url(#path-12-inside-4_682_3124)"/>
<mask id="path-13-inside-5_682_3124" fill="white">
<path d="M82.0464 49.1953C82.0464 48.9192 82.2702 48.6953 82.5464 48.6953H102.964C103.241 48.6953 103.464 48.9192 103.464 49.1953V57.2992C103.464 57.5754 103.241 57.7992 102.964 57.7992H82.5464C82.2702 57.7992 82.0464 57.5754 82.0464 57.2992V49.1953Z"/>
</mask>
<path d="M82.0464 49.1953C82.0464 48.9192 82.2702 48.6953 82.5464 48.6953H102.964C103.241 48.6953 103.464 48.9192 103.464 49.1953V57.2992C103.464 57.5754 103.241 57.7992 102.964 57.7992H82.5464C82.2702 57.7992 82.0464 57.5754 82.0464 57.2992V49.1953Z" stroke="white" stroke-width="2" mask="url(#path-13-inside-5_682_3124)"/>
<mask id="path-14-inside-6_682_3124" fill="white">
<path d="M81.3877 65.4385C81.3877 65.1623 81.6116 64.9385 81.8877 64.9385H102.306C102.582 64.9385 102.806 65.1623 102.806 65.4385V73.5424C102.806 73.8186 102.582 74.0424 102.306 74.0424H81.8877C81.6116 74.0424 81.3877 73.8186 81.3877 73.5424V65.4385Z"/>
</mask>
<path d="M81.3877 65.4385C81.3877 65.1623 81.6116 64.9385 81.8877 64.9385H102.306C102.582 64.9385 102.806 65.1623 102.806 65.4385V73.5424C102.806 73.8186 102.582 74.0424 102.306 74.0424H81.8877C81.6116 74.0424 81.3877 73.8186 81.3877 73.5424V65.4385Z" stroke="white" stroke-width="2" mask="url(#path-14-inside-6_682_3124)"/>
<mask id="path-15-inside-7_682_3124" fill="white">
<path d="M70.5146 57.3096C70.5146 57.0334 70.7385 56.8096 71.0146 56.8096H92.8038C93.0799 56.8096 93.3038 57.0334 93.3038 57.3096V65.4135C93.3038 65.6896 93.0799 65.9135 92.8038 65.9135H71.0146C70.7385 65.9135 70.5146 65.6896 70.5146 65.4135V57.3096Z"/>
</mask>
<path d="M70.5146 57.3096C70.5146 57.0334 70.7385 56.8096 71.0146 56.8096H92.8038C93.0799 56.8096 93.3038 57.0334 93.3038 57.3096V65.4135C93.3038 65.6896 93.0799 65.9135 92.8038 65.9135H71.0146C70.7385 65.9135 70.5146 65.6896 70.5146 65.4135V57.3096Z" stroke="white" stroke-width="2" mask="url(#path-15-inside-7_682_3124)"/>
<mask id="path-16-inside-8_682_3124" fill="white">
<path d="M70.5146 73.248C70.5146 72.9719 70.7385 72.748 71.0146 72.748H92.8038C93.0799 72.748 93.3038 72.9719 93.3038 73.248V81.352C93.3038 81.6281 93.0799 81.852 92.8038 81.852H71.0146C70.7385 81.852 70.5146 81.6281 70.5146 81.352V73.248Z"/>
</mask>
<path d="M70.5146 73.248C70.5146 72.9719 70.7385 72.748 71.0146 72.748H92.8038C93.0799 72.748 93.3038 72.9719 93.3038 73.248V81.352C93.3038 81.6281 93.0799 81.852 92.8038 81.852H71.0146C70.7385 81.852 70.5146 81.6281 70.5146 81.352V73.248Z" stroke="white" stroke-width="2" mask="url(#path-16-inside-8_682_3124)"/>
<mask id="path-17-inside-9_682_3124" fill="white">
<path d="M92.0972 57.3096C92.0972 57.0334 92.321 56.8096 92.5972 56.8096H114.386C114.662 56.8096 114.886 57.0334 114.886 57.3096V65.4135C114.886 65.6896 114.662 65.9135 114.386 65.9135H92.5972C92.321 65.9135 92.0972 65.6896 92.0972 65.4135V57.3096Z"/>
</mask>
<path d="M92.0972 57.3096C92.0972 57.0334 92.321 56.8096 92.5972 56.8096H114.386C114.662 56.8096 114.886 57.0334 114.886 57.3096V65.4135C114.886 65.6896 114.662 65.9135 114.386 65.9135H92.5972C92.321 65.9135 92.0972 65.6896 92.0972 65.4135V57.3096Z" stroke="white" stroke-width="2" mask="url(#path-17-inside-9_682_3124)"/>
<mask id="path-18-inside-10_682_3124" fill="white">
<path d="M92.0972 73.248C92.0972 72.9719 92.321 72.748 92.5972 72.748H114.386C114.662 72.748 114.886 72.9719 114.886 73.248V81.352C114.886 81.6281 114.662 81.852 114.386 81.852H92.5972C92.321 81.852 92.0972 81.6281 92.0972 81.352V73.248Z"/>
</mask>
<path d="M92.0972 73.248C92.0972 72.9719 92.321 72.748 92.5972 72.748H114.386C114.662 72.748 114.886 72.9719 114.886 73.248V81.352C114.886 81.6281 114.662 81.852 114.386 81.852H92.5972C92.321 81.852 92.0972 81.6281 92.0972 81.352V73.248Z" stroke="white" stroke-width="2" mask="url(#path-18-inside-10_682_3124)"/>
<mask id="path-19-inside-11_682_3124" fill="white">
<path d="M101.745 65.4385C101.745 65.1623 101.969 64.9385 102.245 64.9385H124.034C124.31 64.9385 124.534 65.1623 124.534 65.4385V73.5424C124.534 73.8186 124.31 74.0424 124.034 74.0424H102.245C101.969 74.0424 101.745 73.8186 101.745 73.5424V65.4385Z"/>
</mask>
<path d="M101.745 65.4385C101.745 65.1623 101.969 64.9385 102.245 64.9385H124.034C124.31 64.9385 124.534 65.1623 124.534 65.4385V73.5424C124.534 73.8186 124.31 74.0424 124.034 74.0424H102.245C101.969 74.0424 101.745 73.8186 101.745 73.5424V65.4385Z" stroke="white" stroke-width="2" mask="url(#path-19-inside-11_682_3124)"/>
<path d="M124.641 54.793C124.416 60.2047 129.621 61.8395 132.252 61.9805C135.916 61.9805 139.721 59.7256 139.862 54.793C139.94 52.0602 137.499 47.2771 135.133 43.3928C133.759 41.1376 130.625 41.0511 129.213 43.2824C127.018 46.7498 124.791 51.2017 124.641 54.793Z" stroke="white" stroke-linecap="round" stroke-linejoin="round"/>
<path d="M130.279 58.4574C130.279 57.3677 131.162 56.4844 132.252 56.4844C133.342 56.4844 134.225 57.3677 134.225 58.4574V66.9132H130.279V58.4574Z" fill="white"/>
<path d="M130.279 58.4574C130.279 57.3677 131.162 56.4844 132.252 56.4844C133.342 56.4844 134.225 57.3677 134.225 58.4574V66.9132H130.279V58.4574Z" stroke="white"/>
<rect x="129.433" y="66.0674" width="5.63722" height="15.7842" rx="2.81861" fill="white"/>
<rect x="129.433" y="66.0674" width="5.63722" height="15.7842" rx="2.81861" stroke="white"/>
</svg>
