<svg width="226" height="214" viewBox="0 0 226 214" fill="none" xmlns="http://www.w3.org/2000/svg">
<path opacity="0.2" d="M84.8731 15.4248H225.073L144.277 213.564H0.927246L84.8731 15.4248Z" fill="#D82227"/>
<path d="M73.9911 0.564453H184.206L134.671 121.306H21.9795L73.9911 0.564453Z" fill="#D82227"/>
<path d="M82.3525 30.2852C82.3525 30.2852 83.9276 33.3404 83.9276 35.4486C83.9276 37.5568 82.3525 38.5039 82.3525 40.6121C82.3525 42.7203 83.9276 43.6674 83.9276 45.7755C83.9276 47.8837 82.3525 48.8308 82.3525 50.939C82.3525 53.0472 83.9276 53.9943 83.9276 56.1025C83.9276 58.2106 82.3525 59.1577 82.3525 61.2659C82.3525 63.3741 83.9276 64.3212 83.9276 66.4294" stroke="white" stroke-linecap="round"/>
<path d="M89.0986 30.2852C89.0986 30.2852 90.6737 33.3404 90.6737 35.4486C90.6737 37.5568 89.0986 38.5039 89.0986 40.6121C89.0986 42.7203 90.6737 43.6674 90.6737 45.7755C90.6737 47.8837 89.0986 48.8308 89.0986 50.939C89.0986 53.0472 90.6737 53.9943 90.6737 56.1025C90.6737 58.2106 89.0986 59.1577 89.0986 61.2659C89.0986 63.3741 90.6737 64.3212 90.6737 66.4294" stroke="white" stroke-linecap="round"/>
<path d="M95.8457 30.2852C95.8457 30.2852 97.4207 33.3404 97.4207 35.4486C97.4207 37.5568 95.8457 38.5039 95.8457 40.6121C95.8457 42.7203 97.4207 43.6674 97.4207 45.7755C97.4207 47.8837 95.8457 48.8308 95.8457 50.939C95.8457 53.0472 97.4207 53.9943 97.4207 56.1025C97.4207 58.2106 95.8457 59.1577 95.8457 61.2659C95.8457 63.3741 97.4207 64.3212 97.4207 66.4294" stroke="white" stroke-linecap="round"/>
<path d="M102.592 30.2852C102.592 30.2852 104.167 33.3404 104.167 35.4486C104.167 37.5568 102.592 38.5039 102.592 40.6121C102.592 42.7203 104.167 43.6674 104.167 45.7755C104.167 47.8837 102.592 48.8308 102.592 50.939C102.592 53.0472 104.167 53.9943 104.167 56.1025C104.167 58.2106 102.592 59.1577 102.592 61.2659C102.592 63.3741 104.167 64.3212 104.167 66.4294" stroke="white" stroke-linecap="round"/>
<path d="M109.338 30.2852C109.338 30.2852 110.913 33.3404 110.913 35.4486C110.913 37.5568 109.338 38.5039 109.338 40.6121C109.338 42.7203 110.913 43.6674 110.913 45.7755C110.913 47.8837 109.338 48.8308 109.338 50.939C109.338 53.0472 110.913 53.9943 110.913 56.1025C110.913 58.2106 109.338 59.1577 109.338 61.2659C109.338 63.3741 110.913 64.3212 110.913 66.4294" stroke="white" stroke-linecap="round"/>
<path d="M116.085 30.2852C116.085 30.2852 117.66 33.3404 117.66 35.4486C117.66 37.5568 116.085 38.5039 116.085 40.6121C116.085 42.7203 117.66 43.6674 117.66 45.7755C117.66 47.8837 116.085 48.8308 116.085 50.939C116.085 53.0472 117.66 53.9943 117.66 56.1025C117.66 58.2106 116.085 59.1577 116.085 61.2659C116.085 63.3741 117.66 64.3212 117.66 66.4294" stroke="white" stroke-linecap="round"/>
<path d="M122.832 30.2852C122.832 30.2852 124.407 33.3404 124.407 35.4486C124.407 37.5568 122.832 38.5039 122.832 40.6121C122.832 42.7203 124.407 43.6674 124.407 45.7755C124.407 47.8837 122.832 48.8308 122.832 50.939C122.832 53.0472 124.407 53.9943 124.407 56.1025C124.407 58.2106 122.832 59.1577 122.832 61.2659C122.832 63.3741 124.407 64.3212 124.407 66.4294" stroke="white" stroke-linecap="round"/>
<path d="M76.6906 63.1083H128.806L128.806 67.7087L76.6906 67.7087L76.6906 63.1083Z" fill="white"/>
<path d="M75.8135 86.3219L75.8134 62.232H129.684L129.684 86.322L120.12 86.322V84.5673L127.929 84.5673L127.929 63.9867L77.568 63.9867L77.5681 84.5673L85.3768 84.5673L85.3768 86.322L75.8135 86.3219Z" fill="white"/>
<path d="M120.998 86.1706L120.998 75.5167H111.798L111.798 82.0846C111.798 82.4161 111.669 82.7275 111.434 82.962C111.2 83.1964 110.889 83.3254 110.557 83.3254L94.9404 83.3248C94.2809 83.3251 93.6983 82.7413 93.6996 82.084L93.6996 75.5162L88.6605 75.5162L84.4993 75.5168L84.4993 86.1707C84.4993 87.517 85.0452 88.8347 85.9971 89.7866C86.949 90.7385 88.2668 91.2843 89.613 91.2844H115.884C117.25 91.285 118.534 90.7527 119.5 89.7866C120.466 88.8205 120.998 87.5363 120.998 86.1706Z" fill="white"/>
<path d="M110.193 74.6398H122.602L122.601 76.3947L110.193 76.3944L110.193 74.6398Z" fill="white"/>
<path d="M82.8947 74.6395L95.3029 74.6398L95.3029 76.3945L82.8944 76.3945L82.8947 74.6395Z" fill="white"/>
<path d="M85.9156 57.6738L82.5487 60.4364L79.1818 57.6738L75.8149 60.4364V62.681H129.685V60.4364L126.318 57.6738L122.951 60.4364L119.585 57.6738L116.218 60.4364L112.851 57.6738L109.484 60.4364L106.117 57.6738L102.75 60.4364L99.3832 57.6738L96.0163 60.4364L92.6494 57.6738L89.2825 60.4364L85.9156 57.6738Z" fill="white"/>
</svg>
