<svg width="226" height="214" viewBox="0 0 226 214" fill="none" xmlns="http://www.w3.org/2000/svg">
<path opacity="0.2" d="M84.8731 15.71H225.073L144.277 213.849H0.927246L84.8731 15.71Z" fill="#D82227"/>
<path d="M75.849 0.849609H186.064L136.529 121.591H23.8374L75.849 0.849609Z" fill="#D82227"/>
<g clip-path="url(#clip0_683_3125)">
<path d="M118.536 32.3564C118.312 32.1332 118.01 32.0078 117.694 32.0078C117.378 32.0078 117.075 32.1332 116.852 32.3564L108.937 40.27C108.882 40.3253 108.838 40.391 108.808 40.4634C108.778 40.5357 108.763 40.6132 108.763 40.6915C108.763 40.7698 108.778 40.8473 108.808 40.9196C108.838 40.9919 108.882 41.0577 108.937 41.113C109.049 41.2248 109.201 41.2876 109.359 41.2876C109.437 41.2876 109.515 41.2722 109.587 41.2422C109.659 41.2123 109.725 41.1684 109.78 41.113L117.694 33.1983L125.607 41.113C125.719 41.2248 125.871 41.2876 126.029 41.2876C126.187 41.2876 126.339 41.2248 126.45 41.113C126.562 41.0012 126.625 40.8496 126.625 40.6915C126.625 40.5334 126.562 40.3818 126.45 40.27L123.647 37.4682V33.5472C123.647 33.3893 123.585 33.2378 123.473 33.1262C123.361 33.0145 123.21 32.9518 123.052 32.9518H121.861C121.703 32.9518 121.552 33.0145 121.44 33.1262C121.329 33.2378 121.266 33.3893 121.266 33.5472V35.0868L118.536 32.3564Z" fill="white"/>
<path d="M117.694 34.4912L124.838 41.6355V46.6449C124.838 47.1186 124.65 47.5729 124.315 47.9079C123.98 48.2428 123.526 48.431 123.052 48.431H112.335C111.862 48.431 111.407 48.2428 111.072 47.9079C110.737 47.5729 110.549 47.1186 110.549 46.6449V41.6355L117.694 34.4912Z" fill="white"/>
</g>
<path d="M82.855 66.3824C82.6207 66.6167 82.6207 66.9966 82.855 67.2309C83.0893 67.4652 83.4692 67.4652 83.7036 67.2309L82.855 66.3824ZM104.712 45.3736L98.0202 47.1668L102.919 52.0658L104.712 45.3736ZM83.7036 67.2309L101.318 49.6163L100.47 48.7678L82.855 66.3824L83.7036 67.2309Z" fill="white"/>
<rect x="120.872" y="50.9141" width="3.09588" height="40.6887" fill="white"/>
<rect x="107.284" y="60.7363" width="3.17526" height="30.9588" fill="white"/>
<rect x="93.6973" y="69.4678" width="3.17526" height="22.2268" fill="white"/>
<path d="M111.55 52.417C111.55 51.8647 111.998 51.417 112.55 51.417H122.838C123.391 51.417 123.838 51.8647 123.838 52.417V91.4892H111.55V52.417Z" stroke="white" stroke-width="2"/>
<path d="M84.3784 70.6748C84.3784 70.1225 84.8261 69.6748 85.3784 69.6748H95.6671C96.2194 69.6748 96.6671 70.1225 96.6671 70.6748V91.4892H84.3784V70.6748Z" stroke="white" stroke-width="2"/>
<path d="M97.9639 61.9414C97.9639 61.3891 98.4116 60.9414 98.9639 60.9414H109.253C109.805 60.9414 110.253 61.3891 110.253 61.9414V91.4878H97.9639V61.9414Z" stroke="white" stroke-width="2"/>
<defs>
<clipPath id="clip0_683_3125">
<rect width="19.0515" height="19.0515" fill="white" transform="translate(108.168 30.5703)"/>
</clipPath>
</defs>
</svg>
